<svg width="11" height="9" viewBox="0 0 11 9" fill="none" xmlns="http://www.w3.org/2000/svg">
<g clip-path="url(#clip0)">
<path d="M0.397056 5.66764C0.140222 5.42227 0.00746323 5.09585 0.000749202 4.76721C-0.00587531 4.43866 0.113634 4.10708 0.360174 3.85156C0.606534 3.59621 0.934626 3.46404 1.26487 3.45745C1.59529 3.45068 1.92839 3.56923 2.1854 3.81477L4.40435 5.93902L8.82209 0.355831L8.98036 0.475977L8.82191 0.355297C8.83453 0.338998 8.84885 0.325104 8.86479 0.313793C9.12762 0.0873059 9.4575 -0.0149385 9.77995 0.00251788V0.00216163L9.79571 0.00358664C10.12 0.0249618 10.4369 0.168353 10.6708 0.428061C10.9087 0.692133 11.0166 1.02754 10.9986 1.35539H10.999L10.9975 1.37106C10.9764 1.68795 10.8372 1.99762 10.5849 2.22892L5.28317 8.64947L5.28353 8.64983C5.27359 8.66238 5.2624 8.67316 5.25022 8.6826C5.00198 8.89947 4.68848 9.00581 4.37677 9.00047C4.06247 8.99504 3.74879 8.87614 3.50476 8.64279L0.397056 5.66764Z" fill="white"/>
</g>
<defs>
<clipPath id="clip0">
<rect width="11" height="9" fill="white" transform="translate(0.000488281)"/>
</clipPath>
</defs>
</svg>
