<svg width="14" height="12" viewBox="0 0 14 12" fill="none" xmlns="http://www.w3.org/2000/svg">
<g clip-path="url(#clip0)">
<path fill-rule="evenodd" clip-rule="evenodd" d="M8.44535 1.09811L12.5834 5.20582C12.8373 5.4579 12.8373 5.86659 12.5834 6.11865L8.44535 10.2263C8.19142 10.4785 7.77971 10.4785 7.52579 10.2263C7.27186 9.97428 7.27186 9.56561 7.52579 9.31355L10.5539 6.30771H1.28646C0.927348 6.30771 0.63623 6.01872 0.63623 5.66224C0.63623 5.30576 0.927348 5.01677 1.28646 5.01677H10.5539L7.52579 2.01094C7.27186 1.75886 7.27186 1.35018 7.52579 1.09811C7.77971 0.84604 8.19142 0.84604 8.44535 1.09811Z" fill="#806EF8"/>
</g>
<defs>
<clipPath id="clip0">
<rect width="12.7273" height="10.1818" fill="white" transform="translate(0.63623 0.909058)"/>
</clipPath>
</defs>
</svg>
