<svg width="39" height="17" viewBox="0 0 39 17" fill="none" xmlns="http://www.w3.org/2000/svg">
<g clip-path="url(#clip0)">
<path d="M0.91377 10.0954C0.36582 9.73038 0 9.00155 0 8.363C0 7.72484 0.27417 7.1326 0.9594 6.81351H0.91377C4.1574 4.89903 8.68062 2.34638 11.6961 0.568481V4.80798C10.5082 5.49166 8.90916 6.2668 4.88865 8.40931L4.93428 8.45445C7.08162 9.41208 9.54876 10.8705 11.6961 12.1468V16.4319L0.91377 10.0954Z" fill="black"/>
<path d="M38.0865 6.90457C38.6341 7.26957 39.0003 7.99878 39.0003 8.63694C39.0003 9.27511 38.7261 9.86735 38.0405 10.1864H38.0865C34.8429 12.1009 30.3193 14.6536 27.3042 16.4315V12.192C28.4921 11.5087 30.0911 10.7335 34.1116 8.59103L34.066 8.54589C31.9191 7.58826 29.4515 6.12983 27.3042 4.8535V0.568481L38.0865 6.90457Z" fill="black"/>
<path d="M18.0966 17H15.3623L20.8574 0H23.6381L18.0966 17Z" fill="black"/>
</g>
<defs>
<clipPath id="clip0">
<rect width="39" height="17" fill="white"/>
</clipPath>
</defs>
</svg>
