<svg width="18" height="18" viewBox="0 0 18 18" fill="none" xmlns="http://www.w3.org/2000/svg">
<g clip-path="url(#clip0)">
<path d="M17.7214 0.417067C17.5014 0.148178 17.1721 0 16.794 0C16.5883 0 16.3706 0.0433958 16.1468 0.128814L0.910059 5.94509C0.101468 6.25367 -0.00743326 6.71674 -0.000429514 6.96544C0.00657424 7.21401 0.141568 7.67021 0.966364 7.93251C0.971308 7.93416 0.976251 7.93553 0.981195 7.93704L3.11803 8.54843L13.5248 3.23175C13.7841 3.09909 14.1018 3.20209 14.2344 3.4615C14.3385 3.6653 14.2967 3.9048 14.1484 4.06245L14.1488 4.06287L8.36261 10.2109L8.19754 10.8799L10.2638 12.5437L13.1271 14.8493C13.1296 14.8513 13.132 14.8533 13.1346 14.8552C13.4497 15.0997 13.7938 15.2288 14.1299 15.2289C14.7866 15.2289 15.3094 14.7429 15.4617 13.9909L17.9582 1.66374C18.0583 1.16908 17.9742 0.726194 17.7214 0.417067Z" fill="white"/>
<path d="M7.37289 9.82399C7.39391 9.73871 7.4362 9.65741 7.50061 9.58888L11.2973 5.55457L4.25195 9.15396L5.8517 13.7291C5.94289 13.9897 6.07857 14.2117 6.24638 14.3854L7.37262 9.82385L7.37289 9.82399Z" fill="white"/>
<path d="M7.22827 14.8088C7.60854 14.8057 7.98221 14.6453 8.3096 14.3438L9.48006 13.2661L7.91945 12.0095L7.22827 14.8088Z" fill="white"/>
</g>
<defs>
<clipPath id="clip0">
<rect width="18" height="18" fill="white"/>
</clipPath>
</defs>
</svg>
