<svg width="16" height="16" viewBox="0 0 16 16" fill="none" xmlns="http://www.w3.org/2000/svg">
<g clip-path="url(#clip0)">
<path d="M7.99942 1.29274C8.18317 1.43061 8.34394 1.44555 8.82446 1.47274C10.2324 1.55355 11.1252 1.85432 12.1182 2.58335C13.3339 3.47266 14.0965 4.71315 14.3856 6.2704C14.46 6.67357 14.4968 7.01572 14.5218 7.53142C14.537 7.87728 14.549 8.0114 14.6277 8.16286C14.7386 8.36951 14.9536 8.50685 15.2029 8.53004C15.2274 8.53216 15.2519 8.53322 15.2762 8.53322C15.4981 8.53322 15.704 8.43935 15.8354 8.27589C16.01 8.06309 16.0098 7.86472 15.9927 7.43752C15.9426 6.11438 15.6533 4.92561 15.1328 3.9043C14.7616 3.17767 14.4072 2.70169 13.7779 2.08465C13.1067 1.43214 12.5894 1.0671 11.7995 0.689765C10.9628 0.290374 10.3708 0.163972 9.5039 0.0581325C9.32897 0.0381332 8.99964 0.0120092 8.77111 0.00454072C8.33566 -0.009865 8.16554 0.00188457 7.96449 0.180534C7.81037 0.316248 7.72637 0.522397 7.73331 0.746638C7.74021 0.969286 7.83674 1.1674 7.99942 1.29274Z" fill="white"/>
<path d="M12.3881 7.01284C12.3881 7.38749 12.419 7.73922 12.7883 7.92109C12.8896 7.97362 13.0216 8.00003 13.1504 8.00003C13.2648 8.00003 13.3763 7.97896 13.4613 7.93631C13.6107 7.8595 13.7613 7.69738 13.8203 7.55073C13.8952 7.36167 13.8611 6.68383 13.8397 6.49264C13.7397 5.63855 13.4429 4.83218 12.9816 4.16101C12.146 2.94693 10.8937 2.2128 9.26043 1.97897C8.70658 1.89738 8.29512 1.86857 8.05301 2.23815C7.86289 2.51895 7.88714 2.87706 8.11166 3.12799C8.29059 3.33092 8.54683 3.37679 8.77351 3.39492C9.42255 3.4461 10.1495 3.65863 10.626 3.93624L10.6268 3.93649C11.1812 4.25754 11.6401 4.72421 11.9545 5.28631C12.2299 5.77795 12.3881 6.40727 12.3881 7.01284Z" fill="white"/>
<path d="M10.9676 4.72262C10.6028 4.38851 10.1753 4.17917 9.62333 4.06399C9.49693 4.03734 9.28253 4.01412 9.14922 4.00665C8.91935 3.99252 8.8247 3.99493 8.66124 4.07437C8.46365 4.17355 8.32525 4.35754 8.28097 4.57863C8.23697 4.79834 8.29325 5.01942 8.43725 5.18742C8.60365 5.37754 8.77405 5.425 9.11775 5.46581C9.69214 5.53462 10.0156 5.72793 10.1985 6.11138C10.2911 6.3071 10.3436 6.52149 10.374 6.82976C10.4055 7.11857 10.462 7.30387 10.6676 7.45587C10.7969 7.55346 10.9606 7.60174 11.1227 7.60174C11.3001 7.60174 11.4758 7.54386 11.6041 7.42946L11.6057 7.4284C11.8707 7.18869 11.8819 6.89135 11.8102 6.42737C11.699 5.68418 11.4395 5.15833 10.9676 4.72262Z" fill="white"/>
<path d="M15.9983 12.9001C15.9853 12.6097 15.8855 12.35 15.6994 12.1257C15.5197 11.9137 14.3717 11.006 13.8595 10.6554C13.4611 10.3842 12.8315 10.0023 12.5371 9.85327C12.1022 9.637 11.6649 9.59916 11.2345 9.74181C11.1404 9.77327 11.0732 9.80127 11.01 9.83433C10.7921 9.94874 10.6321 10.129 10.3212 10.5114C9.98814 10.9135 9.9188 10.9916 9.91961 10.9916C9.88814 11.0106 9.83802 11.0372 9.77721 11.065C9.5295 11.1778 9.12336 11.085 8.46285 10.7631C7.90553 10.4935 7.40502 10.1474 6.83972 9.64128C6.35815 9.21223 5.87388 8.65572 5.60511 8.22399C5.23178 7.62507 5.00595 6.93204 5.00326 6.61017C5.00326 6.48483 5.0582 6.30484 5.11766 6.20566L5.14379 6.17872C5.16138 6.16166 5.18085 6.14325 5.2075 6.11978C5.30031 6.03632 5.43468 5.9246 5.57468 5.81392C6.18906 5.32994 6.38371 5.13395 6.48771 4.76996C6.58823 4.43344 6.49999 4.01905 6.20984 3.46629C5.77758 2.64151 4.40697 0.886104 3.83499 0.515993C3.74087 0.457057 3.58594 0.377592 3.47635 0.340812C3.2417 0.257877 2.90465 0.229628 2.69503 0.274158C2.40492 0.333625 2.08653 0.516274 1.38389 1.02666C0.998878 1.30853 0.405306 1.85969 0.244219 2.12315C-0.135767 2.76125 -0.0389584 3.31483 0.30556 4.24201C0.633829 5.12679 1.05488 6.01741 1.55539 6.88697L1.58151 6.93097C1.68232 7.10509 1.78551 7.27871 1.89378 7.45283L1.92178 7.49683C2.02925 7.66776 2.13805 7.83841 2.25189 8.00828L2.43136 8.26933C2.49829 8.36692 2.56494 8.46426 2.634 8.56107C2.77028 8.75094 2.90999 8.94024 3.0548 9.12905C4.59846 11.1391 6.3768 12.7529 8.49113 14.0619L8.57778 14.1163C8.88471 14.3043 9.21135 14.4923 9.5484 14.6747L9.68012 14.7457C10.0289 14.9312 10.3603 15.0976 10.6934 15.2536L10.7971 15.3008C11.1905 15.4829 11.5502 15.6395 11.8963 15.7789C12.3152 15.948 12.5091 15.9997 12.8034 15.9997C12.8557 15.9997 12.9114 15.9981 12.9722 15.9952C13.1621 15.9861 13.3328 15.9579 13.4944 15.9085C13.7213 15.8397 13.9485 15.7243 14.2085 15.5448C14.2538 15.5136 14.2991 15.4819 14.3479 15.4459C14.4055 15.4035 14.4668 15.3515 14.529 15.2979C14.8252 15.0416 15.1652 14.6694 15.4391 14.3022C15.5852 14.1062 15.7793 13.8217 15.8761 13.5774C15.9668 13.3489 16.0078 13.1209 15.9982 12.9004V12.9001H15.9983Z" fill="white"/>
</g>
<defs>
<clipPath id="clip0">
<rect width="16" height="16" fill="white"/>
</clipPath>
</defs>
</svg>
