<svg width="26" height="55" viewBox="0 0 26 55" fill="none" xmlns="http://www.w3.org/2000/svg">
<g clip-path="url(#clip0)">
<path fill-rule="evenodd" clip-rule="evenodd" d="M12.8036 43.1898C10.3853 43.2009 7.97378 42.9378 5.61727 42.4059C4.91672 42.2516 4.22966 42.0436 3.56245 41.7838L5.22417 44.562L5.87301 53.242C5.87301 54.2151 9.03119 55.0034 12.9253 55.0034C16.8194 55.0034 19.9776 54.2151 19.9776 53.242L20.4913 44.468L22.0637 41.7761C21.3905 42.0394 20.6971 42.25 19.9899 42.4059C17.6334 42.9378 15.2219 43.2009 12.8036 43.1898V43.1898ZM22.1173 14.9455C19.6605 15.2822 16.3928 15.467 12.9253 15.467C9.45779 15.467 6.19352 15.2822 3.73331 14.9455C2.51493 14.7793 1.55117 14.5825 0.868835 14.3616C0.625438 14.288 0.389537 14.1925 0.164163 14.0763L1.68853 27.8065C1.75926 27.5703 1.83818 27.3345 1.92528 27.0991C2.10399 26.6161 2.31131 26.1437 2.5462 25.6843C2.77465 25.2343 3.03086 24.7984 3.31341 24.3789C3.57993 23.9815 3.87474 23.6029 4.19564 23.2461C4.48694 22.921 4.80887 22.6233 5.15717 22.3573C5.46196 22.1221 5.79638 21.9262 6.1522 21.7745C6.46577 21.6388 6.80439 21.5674 7.14723 21.5646C7.53441 21.5674 7.91367 21.6724 8.24499 21.8685C8.64732 22.1189 8.98638 22.4553 9.23667 22.8525C9.30319 22.9444 9.34888 23.0492 9.37068 23.1598C9.38882 23.2564 9.39816 23.3545 9.3986 23.4528C9.40926 23.637 9.35309 23.819 9.24002 23.9667C9.19598 24.0242 9.13905 24.071 9.07361 24.1036C9.00817 24.1362 8.93597 24.1537 8.86256 24.1547C8.788 24.1508 8.71536 24.1302 8.65029 24.0943C8.58521 24.0585 8.52945 24.0084 8.48733 23.9481C8.34161 23.7634 8.2134 23.5662 8.10428 23.3588C8.00011 23.1595 7.84935 22.9872 7.66428 22.8558C7.51162 22.7547 7.33154 22.7006 7.14723 22.7006C6.85575 22.7006 6.54529 22.8187 6.21362 23.0548C5.84718 23.3252 5.51732 23.64 5.23199 23.9918C4.8858 24.4106 4.574 24.8555 4.2995 25.3224C4.00416 25.8161 3.74046 26.3273 3.50996 26.8531C3.28867 27.3551 3.10613 27.8726 2.96387 28.4013C2.83742 28.8481 2.76913 29.3087 2.76062 29.7723C2.76106 29.9113 2.77076 30.0501 2.78965 30.1878C2.80501 30.3213 2.84077 30.4518 2.89574 30.5748C2.94289 30.6848 3.01508 30.7828 3.10681 30.8613C3.20311 30.9369 3.32411 30.9757 3.44742 30.9706C3.63201 30.9623 3.81177 30.9101 3.97118 30.8186C4.1855 30.7067 4.38886 30.5756 4.57869 30.4272C4.79994 30.2528 5.01132 30.0666 5.21189 29.8696C5.42407 29.6619 5.62174 29.4531 5.80489 29.2399C5.98803 29.0267 6.14996 28.8244 6.29068 28.6287C6.4113 28.468 6.51777 28.2975 6.60895 28.1192L7.18966 26.419C7.2391 26.2643 7.33575 26.1281 7.46662 26.0287C7.56855 25.9557 7.691 25.9152 7.81728 25.9128C7.87652 25.9132 7.93533 25.9228 7.99149 25.9412C8.04965 25.9602 8.10296 25.9911 8.14784 26.032C8.19689 26.0758 8.23509 26.1301 8.25951 26.1905C8.28771 26.2635 8.30136 26.341 8.29972 26.419C8.30119 26.6392 8.28024 26.8589 8.23718 27.075C8.19605 27.2758 8.1431 27.474 8.0786 27.6687C8.01383 27.8612 7.94235 28.0558 7.86307 28.2504C7.78378 28.445 7.70672 28.6505 7.6319 28.8627C7.59475 28.9356 7.56448 29.0117 7.54144 29.0901C7.49789 29.218 7.4454 29.3787 7.38286 29.5711C7.32032 29.7636 7.2589 29.9746 7.18073 30.2129C7.10256 30.4513 7.03332 30.6951 6.95738 30.9444C6.88144 31.1937 6.80662 31.4364 6.73403 31.6747C6.66144 31.9131 6.60002 32.1296 6.54418 32.322C6.48834 32.5144 6.44032 32.6762 6.40347 32.8064C6.36661 32.9365 6.34316 33.0141 6.33423 33.0381C6.30965 33.1267 6.27636 33.2128 6.23484 33.2951C6.18938 33.389 6.13517 33.4787 6.07291 33.5629C6.01486 33.6408 5.94565 33.71 5.86743 33.7685C5.80211 33.8201 5.72129 33.8493 5.63737 33.8516C5.58165 33.856 5.52571 33.8463 5.47488 33.8236C5.42406 33.8008 5.38003 33.7656 5.34702 33.7215C5.28671 33.634 5.25656 33.4755 5.25656 33.2437V33.142C5.25666 33.1055 5.25889 33.069 5.26326 33.0327C5.28078 32.8845 5.3118 32.7381 5.35595 32.5953C5.41514 32.3832 5.48438 32.1438 5.5659 31.8759C5.64742 31.608 5.73341 31.3292 5.82722 31.0439C5.92103 30.7585 6.00479 30.4972 6.07961 30.2731C5.85626 30.5143 5.61727 30.7545 5.36265 30.9936C5.11336 31.2246 4.84887 31.4393 4.57087 31.6365C4.31516 31.8187 4.04128 31.9751 3.75341 32.1033C3.50517 32.218 3.23494 32.2798 2.96051 32.2848C2.69704 32.2914 2.43686 32.2263 2.20894 32.0968C2.17097 32.0738 2.13523 32.0476 2.09726 32.0224L2.94488 40.7265C3.16823 41.2732 7.32144 42.5994 12.8014 42.5994C18.2813 42.5994 22.4412 41.2677 22.6578 40.7265L23.8762 30.3769C23.7746 30.4677 23.6774 30.5562 23.5825 30.6426C23.2677 30.9325 22.9378 31.2062 22.5942 31.4626C22.3143 31.6749 22.0095 31.8536 21.6862 31.9951C21.387 32.1216 21.0641 32.1856 20.7381 32.1831C20.4775 32.1992 20.2192 32.1278 20.0055 31.9809C19.9205 31.9145 19.8526 31.8294 19.8076 31.7325C19.7626 31.6356 19.7416 31.5296 19.7464 31.4233V31.3697C19.7451 31.3489 19.7451 31.3281 19.7464 31.3074C19.7756 31.1299 19.8418 30.9602 19.9408 30.8088C20.063 30.6052 20.1984 30.4095 20.3461 30.2228C20.504 30.0209 20.6722 29.8157 20.8509 29.6072C21.0296 29.3988 21.1949 29.2023 21.3468 29.0179C21.4846 28.8593 21.6132 28.6932 21.732 28.5204C21.8154 28.4104 21.8671 28.2806 21.8817 28.1443C21.883 28.1183 21.8781 28.0923 21.8674 28.0684C21.8568 28.0445 21.8406 28.0234 21.8203 28.0066C21.7592 27.9673 21.6865 27.9492 21.6137 27.9552C21.4344 27.9584 21.2583 28.0018 21.0988 28.082C20.9106 28.1738 20.7347 28.288 20.5751 28.422C20.3944 28.5726 20.2253 28.7359 20.0692 28.9108C19.905 29.0944 19.752 29.2847 19.608 29.4826C19.4639 29.6805 19.3332 29.8795 19.2149 30.0796C19.0965 30.2796 18.9915 30.4633 18.9122 30.6328L18.8061 30.8515C18.7603 30.9477 18.7101 31.0559 18.6565 31.1795C18.6029 31.303 18.5448 31.4244 18.4845 31.5512C18.4242 31.678 18.3728 31.8005 18.3192 31.9131C18.2656 32.0257 18.2254 32.1318 18.1863 32.217C18.1473 32.3023 18.1182 32.3679 18.1015 32.4018C18.0847 32.4357 18.0467 32.5265 17.9987 32.6478C17.9507 32.7692 17.896 32.9091 17.8334 33.0709C17.7709 33.2328 17.705 33.3989 17.6369 33.5804L17.4437 34.0867L17.284 34.5065C17.2386 34.6268 17.2096 34.7088 17.1969 34.7525C17.157 34.8743 17.1081 34.993 17.0506 35.1078C16.9978 35.2124 16.933 35.3107 16.8574 35.4009C16.787 35.4823 16.7023 35.5508 16.6072 35.6031C16.5106 35.6541 16.4022 35.6801 16.2923 35.6786C16.1599 35.6825 16.0297 35.6441 15.9216 35.5692C15.8233 35.4993 15.7741 35.3659 15.7741 35.168C15.7744 35.0681 15.7871 34.9686 15.8121 34.8717C15.8368 34.7696 15.8681 34.6692 15.9059 34.571C15.9428 34.4715 15.9819 34.3753 16.0176 34.2813C16.0533 34.1872 16.0935 34.0976 16.1293 34.0101C16.3526 33.5276 16.5812 33.0443 16.815 32.5603C17.0487 32.0764 17.2721 31.5964 17.485 31.1204C17.5297 31.0209 17.5699 30.9247 17.6134 30.8252L17.5755 30.8635C17.3212 31.1059 17.0511 31.332 16.7669 31.5403C16.5188 31.7237 16.2511 31.8803 15.9685 32.0071C15.7269 32.1172 15.4643 32.1761 15.1979 32.1799C15.0515 32.1844 14.906 32.1575 14.7713 32.1011C14.6624 32.052 14.5679 31.9768 14.4966 31.8825C14.4248 31.7844 14.375 31.6727 14.3503 31.5545C14.3405 31.5108 14.333 31.4666 14.328 31.4222C14.2542 31.4779 14.1805 31.5315 14.1046 31.584C13.8659 31.7515 13.6107 31.8954 13.343 32.0137C13.1337 32.1132 12.9054 32.1686 12.6729 32.1766C12.5823 32.1799 12.492 32.1643 12.408 32.1307C12.3241 32.0971 12.2484 32.0464 12.186 31.982C12.0609 31.8519 11.9995 31.6299 11.9995 31.3161C12.004 31.0553 12.0373 30.7958 12.0989 30.542C11.9808 30.7437 11.8452 30.935 11.6935 31.1139C11.5275 31.3092 11.3403 31.4863 11.1352 31.6419C10.9222 31.803 10.6868 31.9333 10.4361 32.029C10.171 32.1307 9.88884 32.1834 9.60408 32.1842C9.47024 32.1848 9.33691 32.1679 9.20764 32.1339C9.08388 32.1018 8.96929 32.0423 8.87261 31.9601C8.77121 31.8695 8.69249 31.7573 8.64256 31.6321C8.57903 31.467 8.54906 31.2913 8.55434 31.1149C8.55434 31.1149 8.56327 31.0362 8.58002 30.8963C8.6161 30.6687 8.6691 30.4439 8.7386 30.2239C8.82794 29.9177 8.96642 29.5209 9.15403 29.0332C9.34165 28.5456 9.60334 27.9537 9.93911 27.2576C10.0043 27.1034 10.1084 26.968 10.2418 26.864C10.3492 26.7867 10.4791 26.7449 10.6125 26.7449C10.6737 26.7448 10.7347 26.7532 10.7934 26.77C10.8562 26.7864 10.9155 26.8134 10.9688 26.8498C11.0231 26.8863 11.0684 26.9341 11.1017 26.9898C11.1358 27.0479 11.1532 27.114 11.1519 27.1811C11.1521 27.2277 11.1457 27.274 11.1329 27.3189C11.0995 27.4305 11.0546 27.5386 10.9989 27.6414C10.9304 27.7733 10.8504 27.9253 10.7588 28.0973C10.6672 28.2693 10.5704 28.4537 10.4685 28.6505C10.3672 28.8481 10.2726 29.0529 10.1848 29.265C10.0984 29.4766 10.0238 29.6927 9.96145 29.9123C9.89861 30.1208 9.86113 30.3358 9.84977 30.553C9.8491 30.6364 9.87066 30.7185 9.91231 30.7913C9.93289 30.8264 9.96299 30.8551 9.99926 30.8744C10.0355 30.8937 10.0766 30.9028 10.1178 30.9006C10.3976 30.8977 10.669 30.8064 10.8917 30.6404C11.148 30.4567 11.3769 30.2388 11.5718 29.9932C11.7801 29.7307 11.9669 29.4525 12.1302 29.1611C12.2992 28.8652 12.4395 28.5941 12.5512 28.3477C12.6335 28.1766 12.7036 28.0002 12.7611 27.8196C12.8165 27.6422 12.8821 27.4681 12.9577 27.2981C13.0186 27.1548 13.1002 27.0207 13.2 26.9001C13.2412 26.85 13.2935 26.8097 13.3529 26.7823C13.4122 26.7548 13.4772 26.7409 13.5429 26.7416C13.6115 26.739 13.6798 26.7528 13.7419 26.7818C13.8039 26.8107 13.8579 26.8539 13.8991 26.9078C13.9873 27.0222 14.0333 27.1624 14.0298 27.3057C14.0218 27.4289 13.9935 27.55 13.946 27.6644C13.8891 27.8163 13.8187 27.9924 13.7338 28.1848C13.649 28.3772 13.5563 28.5882 13.4558 28.8102C13.3553 29.0321 13.2637 29.2574 13.1788 29.487C13.0959 29.7072 13.0251 29.9317 12.9666 30.1594C12.9135 30.359 12.8853 30.5642 12.8829 30.7705C12.8781 30.8065 12.882 30.8431 12.8941 30.8774C12.9063 30.9117 12.9265 30.9428 12.953 30.9681C12.9795 30.9935 13.0117 31.0124 13.0471 31.0235C13.0824 31.0345 13.1198 31.0374 13.1565 31.0319C13.3242 31.0219 13.4879 30.9772 13.6367 30.9006C13.8505 30.8011 14.0524 30.6787 14.2386 30.5355C14.2911 30.4972 14.3447 30.4557 14.3972 30.413C14.4507 30.19 14.5197 29.9708 14.6038 29.757C14.7527 29.3809 14.9016 29.0073 15.0505 28.6363C15.1994 28.2653 15.3368 27.9253 15.4626 27.6162L17.3588 22.9444C17.4129 22.7831 17.5191 22.6434 17.6615 22.5464C17.7756 22.4728 17.9089 22.4326 18.0456 22.4305C18.1739 22.4309 18.2981 22.4745 18.3974 22.5541C18.4537 22.6035 18.4975 22.6651 18.5252 22.734C18.553 22.8029 18.5639 22.8772 18.5571 22.9509C18.5558 23.0451 18.5377 23.1384 18.5035 23.2265C18.4648 23.3323 18.4201 23.436 18.3695 23.537C18.2656 23.7644 18.1461 24.041 17.9987 24.369C17.8513 24.697 17.7006 25.0545 17.5364 25.4405C17.3722 25.8264 17.2014 26.2277 17.0316 26.6432C16.8619 27.0586 16.6966 27.4665 16.5257 27.8622C16.3549 28.258 16.2075 28.6331 16.0645 28.9873C15.9216 29.3415 15.7976 29.6499 15.6937 29.9101C15.6423 30.0368 15.5976 30.1659 15.5597 30.2971C15.5185 30.4245 15.4963 30.5571 15.4938 30.6907C15.4909 30.7509 15.504 30.8108 15.5318 30.8646C15.5469 30.8876 15.5684 30.9059 15.5936 30.9175C15.6189 30.9291 15.647 30.9335 15.6748 30.9302C15.7891 30.9229 15.9007 30.8919 16.002 30.8394C16.1493 30.77 16.2911 30.69 16.4263 30.6C16.5782 30.5016 16.7368 30.389 16.8998 30.261C17.0629 30.1331 17.2282 29.9997 17.3901 29.8631C17.552 29.7264 17.7073 29.5875 17.8547 29.4498C18.0021 29.312 18.135 29.1863 18.2511 29.0704C18.2788 29.0439 18.3114 29.0227 18.3472 29.0081C18.4171 28.8025 18.4808 28.6017 18.5381 28.4056C18.5716 28.3182 18.6174 28.1957 18.6755 28.0361C18.7339 27.8762 18.8007 27.7192 18.8754 27.5659C18.9428 27.4228 19.0275 27.2881 19.1278 27.1647C19.1614 27.1154 19.2063 27.0744 19.2587 27.0448C19.3112 27.0152 19.37 26.9979 19.4304 26.9941C19.4951 26.9878 19.5605 26.9942 19.6226 27.013C19.6848 27.0317 19.7424 27.0625 19.7922 27.1035C19.832 27.1482 19.8624 27.2002 19.8816 27.2565C19.9007 27.3128 19.9083 27.3723 19.9039 27.4315C19.9028 27.4772 19.8987 27.5229 19.8916 27.5681C19.8838 27.6316 19.8738 27.6982 19.8604 27.7682C19.847 27.8382 19.8347 27.9038 19.8201 27.9672C19.8105 28.0137 19.797 28.0594 19.7799 28.1039C19.9333 27.9399 20.0997 27.7773 20.2791 27.6162C20.4545 27.4577 20.6411 27.3116 20.8375 27.1789C21.0209 27.0529 21.2175 26.9462 21.4238 26.8607C21.613 26.7811 21.8165 26.7395 22.0224 26.7383C22.1608 26.7381 22.2985 26.7576 22.4311 26.7962C22.5607 26.8321 22.6831 26.8894 22.7929 26.9657C22.8989 27.0406 22.9872 27.1368 23.052 27.2478C23.12 27.3685 23.1543 27.5047 23.1514 27.6425C23.1468 27.8617 23.0946 28.0775 22.9984 28.2755C22.8906 28.511 22.7624 28.737 22.6154 28.9512C22.4613 29.1786 22.2949 29.3984 22.1162 29.6138C21.9375 29.8292 21.77 30.0238 21.6137 30.1987C21.4573 30.3737 21.3267 30.5267 21.2206 30.6481C21.1475 30.7183 21.091 30.8034 21.0553 30.8974C21.0543 30.9235 21.0588 30.9495 21.0686 30.9738C21.0784 30.998 21.0933 31.0201 21.1122 31.0384C21.1647 31.0798 21.2317 31.0994 21.2987 31.0931C21.4105 31.0792 21.5173 31.0395 21.6103 30.9772C21.8116 30.8561 22.0045 30.722 22.1877 30.5759C22.4356 30.3857 22.7498 30.1306 23.1302 29.8106C23.3904 29.5919 23.6964 29.3295 24.0404 29.031L25.6853 14.0752C25.4598 14.1922 25.2235 14.2881 24.9796 14.3616C24.2994 14.5825 23.3402 14.7793 22.1173 14.9455V14.9455ZM12.9153 11.3965C5.78255 11.3965 0 12.1771 0 13.1404C0 14.1036 5.78255 14.8843 12.9153 14.8843C20.048 14.8843 25.8316 14.1036 25.8316 13.1404C25.8316 12.1771 20.0491 11.3965 12.9153 11.3965V11.3965ZM18.0724 13.651C18.0724 13.8773 17.3856 14.0599 16.538 14.0599C15.6904 14.0599 15.0025 13.8773 15.0025 13.651C15.0025 13.4246 15.6904 13.242 16.538 13.242C17.3856 13.242 18.0724 13.4235 18.0724 13.651Z" fill="#DA4648"/>
<path fill-rule="evenodd" clip-rule="evenodd" d="M15.314 13.4694C15.3063 13.4799 15.3021 13.4925 15.3018 13.5055C15.3018 13.652 15.8601 13.7701 16.538 13.7701C17.2159 13.7701 17.7731 13.652 17.7731 13.5055L19.3868 7.09847L25.8048 0.465156L25.8115 0.458596C25.9467 0.307715 25.6708 -0.156957 25.2141 -0.557121C24.7573 -0.957285 24.2626 -1.09067 24.1096 -0.938698L17.2583 6.11884L15.314 13.4694Z" fill="#DA4648"/>
</g>
<defs>
<clipPath id="clip0">
<rect width="25.8462" height="56" fill="white" transform="translate(0 -1)"/>
</clipPath>
</defs>
</svg>
