<svg width="58" height="58" viewBox="0 0 58 58" fill="none" xmlns="http://www.w3.org/2000/svg">
<g clip-path="url(#clip0)">
<path d="M48.1469 23.2206C48.0587 21.2794 48.3234 19.5589 47.441 18.103C45.3234 14.4853 40.0292 12.3677 29.441 12.3677V12.6765H29.2204H29.441V12.3677C18.8527 12.3677 13.2939 14.4853 11.1763 18.1471C10.338 19.6471 10.4263 21.3236 10.2939 23.2647C10.2057 24.8089 9.4998 26.4412 9.80863 28.2059C10.1616 30.5 10.2939 32.7941 10.6469 34.9118C10.9116 36.6324 13.2939 38.0883 13.5145 39.7206C14.1322 44.2206 18.8086 46.2941 29.3969 46.2941V46.6471H29.1322H29.441V46.2941C40.0292 46.2941 44.5292 44.2206 45.1028 39.7206C45.3234 38.0441 47.5292 36.6324 47.7939 34.9118C48.1469 32.7941 48.2792 30.5 48.6322 28.2059C48.941 26.4412 48.2351 24.7647 48.1469 23.2206Z" fill="#EFCCA3"/>
<path d="M29.2645 24.8088C31.1616 24.853 32.4851 26.0441 33.7204 27.1471C35.1763 28.4265 37.6469 29.3088 38.6616 30.4118C39.6763 31.5147 40.9998 32.6177 41.4851 34.3382C41.9704 36.0588 42.1027 38.2647 42.1027 38.8382C42.1027 39.4118 42.4116 39.2794 43.2939 38.8382C45.3674 37.8235 47.6616 35.0883 47.6616 35.0883C47.3969 36.8088 45.1469 38.353 44.9263 39.9853C44.3969 44.4853 40.0292 46.6471 29.2204 46.6471H29.1763H29.441" fill="#CCAC8D"/>
<path d="M36.2351 21.3677C36.6321 22.7353 38.0439 27.3677 35.3086 25.8235C35.3086 25.8235 36.4557 26.4853 37.1615 29C37.9115 31.5147 39.7204 31.8235 39.7204 31.8235C39.7204 31.8235 42.6762 32.3971 44.8821 30.5C46.7351 28.9118 47.0439 26.0883 46.2498 23.9265C45.4556 21.8089 44.0439 21.1471 41.9704 20.7059C39.8968 20.2206 35.7498 19.8236 36.2351 21.3677Z" fill="#CCAC8D"/>
<path d="M41.4854 30.2794C43.6295 30.2794 45.3677 28.5412 45.3677 26.397C45.3677 24.2528 43.6295 22.5146 41.4854 22.5146C39.3412 22.5146 37.603 24.2528 37.603 26.397C37.603 28.5412 39.3412 30.2794 41.4854 30.2794Z" fill="black"/>
<path d="M40.4708 25.691C41.0312 25.691 41.4855 25.2367 41.4855 24.6763C41.4855 24.1159 41.0312 23.6616 40.4708 23.6616C39.9104 23.6616 39.4561 24.1159 39.4561 24.6763C39.4561 25.2367 39.9104 25.691 40.4708 25.691Z" fill="white"/>
<path d="M35.5733 26.2205C35.5733 26.2205 39.0586 28.6028 40.9557 30.941C42.8527 33.2793 42.8086 33.7205 42.8086 33.7205L41.441 34.3381C41.441 34.3381 39.4998 30.6763 37.1174 29.3087C34.691 27.941 34.4263 26.794 34.4263 26.794L35.5733 26.2205Z" fill="#EFCCA3"/>
<path d="M29.3968 24.8088C27.4997 24.853 26.088 26.0441 24.8086 27.1471C23.3527 28.4265 20.7939 29.3088 19.7792 30.4118C18.7644 31.5147 17.3968 32.6177 16.9115 34.3382C16.4262 36.0588 16.2497 38.2647 16.2497 38.8382C16.2497 39.4118 16.338 39.4559 15.0586 38.8382C12.985 37.8677 10.6909 35.0883 10.6909 35.0883C10.9556 36.8088 13.2056 38.353 13.4262 39.9853C14.0439 44.4853 18.4115 46.6471 29.2203 46.6471H29.4409" fill="#CCAC8D"/>
<path d="M39.6319 32.2645C37.5143 29.6616 34.1172 27.2351 29.3967 27.2351H29.3525C24.6319 27.2351 21.2349 29.6616 19.1172 32.2645C16.9114 34.9557 17.0878 36.0145 17.0878 38.5733C17.0878 47.838 20.3525 45.191 22.5143 46.338C24.7202 47.441 27.0143 47.088 29.3525 47.088H29.3967C31.779 47.088 34.029 47.3969 36.2349 46.2939C38.3967 45.191 41.6614 47.9263 41.6614 38.6616C41.7055 36.1028 41.8378 34.9557 39.6319 32.2645Z" fill="#56332B"/>
<path d="M29.1765 29.5293C29.1765 29.5293 28.8677 33.8087 28.25 34.647L29.3971 34.3823L29.1765 29.5293Z" fill="#442823"/>
<path d="M29.4852 29.5293C29.4852 29.5293 29.7941 33.8087 30.4117 34.647L29.2646 34.3823L29.4852 29.5293Z" fill="#442823"/>
<path d="M25.7795 28.5147C25.3383 27.5 26.9265 25.8676 29.4412 25.8235C31.9559 25.8235 33.5442 27.4558 33.103 28.5147C32.6618 29.5735 31.0736 29.8823 29.4412 29.9264C27.853 29.8823 26.2206 29.5735 25.7795 28.5147Z" fill="#56332B"/>
<path d="M29.4412 29.5294C29.4412 29.3529 30.9412 29.3088 31.7353 28.7794C31.7353 28.7794 30.1029 29.3088 29.75 29.0882C29.397 28.9117 29.3088 28.3823 29.3088 28.3823C29.3088 28.3823 29.1765 28.9117 28.9118 29.0882C28.6029 29.2647 26.75 28.7794 26.75 28.7794C26.75 28.7794 29.2206 29.397 29.2206 29.5294C29.2206 29.6617 29.1765 30.1029 29.1765 30.4117C29.1765 31.5147 29.1765 34.25 29.3529 34.4706C29.6176 34.8676 29.5294 31.5147 29.5294 30.4117C29.4853 30.0588 29.4853 29.7059 29.4412 29.5294Z" fill="black"/>
<path d="M29.5294 35.4411C30.2794 35.4411 31.6029 35.9705 32.7941 36.8087C31.6471 35.5293 30.2794 34.647 29.5294 34.647C28.7353 34.647 27.0588 35.6175 25.8677 37.0293C27.103 36.0587 28.6912 35.4411 29.5294 35.4411Z" fill="#7F4A41"/>
<path d="M29.2207 43.25C27.5443 43.25 25.9119 42.7206 24.4119 42.3235C24.1031 42.2353 23.7943 42.4559 23.4854 42.3677C20.706 41.4853 18.456 39.9853 17.0884 38.0882V38.5294C17.0884 47.7941 20.3531 45.1912 22.5148 46.2941C24.7207 47.3971 27.0148 47.0441 29.3531 47.0441H29.3972C31.7796 47.0441 34.0296 47.353 36.2354 46.25C38.3972 45.1471 41.6619 47.8383 41.6619 38.5735C41.6619 38.2206 41.6619 37.8677 41.706 37.5588C40.4266 39.6324 38.0884 41.2647 35.1766 42.2353C34.9119 42.3236 34.2943 42.103 34.0296 42.1471C32.4413 42.6765 31.0296 43.25 29.2207 43.25Z" fill="#442823"/>
<path d="M25.0293 38.2646C25.0293 38.2646 23.9263 41.5735 24.6763 43.0294L23.6616 42.5882C23.6616 42.5882 24.4116 39.2352 25.0293 38.2646ZM33.7646 38.2646C33.7646 38.2646 34.8675 41.5735 34.1175 43.0294L35.1322 42.5882C35.1322 42.5882 34.3381 39.2352 33.7646 38.2646Z" fill="#442823"/>
<path d="M22.2056 21.3677C21.8086 22.7353 20.3968 27.3677 23.1321 25.8235C23.1321 25.8235 21.9851 26.4853 21.2792 29C20.5733 31.5147 18.7204 31.8235 18.7204 31.8235C18.7204 31.8235 15.7645 32.3971 13.5586 30.5C11.7057 28.9118 11.3968 26.0883 12.1909 23.9265C12.9851 21.7647 14.3968 21.1471 16.4704 20.7059C18.5439 20.2206 22.6468 19.8236 22.2056 21.3677Z" fill="#CCAC8D"/>
<path d="M29.3972 34.6471C30.5884 34.6471 34.2943 37.2059 34.3384 40.3383V40.1618C34.3384 36.8971 31.3384 34.2942 29.3972 34.2942C27.4561 34.2942 24.4561 36.9412 24.4561 40.1618V40.3383C24.5002 37.2059 28.2061 34.6471 29.3972 34.6471Z" fill="black"/>
<path d="M30.3603 28.5386C30.5491 28.4899 30.6281 28.1636 30.5368 27.8097C30.4455 27.4558 30.2185 27.2084 30.0297 27.2571C29.841 27.3057 29.762 27.6321 29.8533 27.986C29.9446 28.3399 30.1716 28.5873 30.3603 28.5386Z" fill="#331712"/>
<path d="M28.0924 28.532C28.2786 28.5897 28.5173 28.3536 28.6256 28.0045C28.7339 27.6555 28.6707 27.3257 28.4846 27.2679C28.2984 27.2101 28.0597 27.4463 27.9514 27.7954C27.8431 28.1444 27.9062 28.4742 28.0924 28.532Z" fill="#331712"/>
<path d="M17.1763 30.2794C19.3205 30.2794 21.0586 28.5412 21.0586 26.397C21.0586 24.2528 19.3205 22.5146 17.1763 22.5146C15.0321 22.5146 13.2939 24.2528 13.2939 26.397C13.2939 28.5412 15.0321 30.2794 17.1763 30.2794Z" fill="black"/>
<path d="M18.1915 25.691C18.7519 25.691 19.2062 25.2367 19.2062 24.6763C19.2062 24.1159 18.7519 23.6616 18.1915 23.6616C17.6311 23.6616 17.1768 24.1159 17.1768 24.6763C17.1768 25.2367 17.6311 25.691 18.1915 25.691Z" fill="white"/>
<path d="M30.5442 26.4411C30.5442 26.3969 29.5295 26.8822 29.2648 26.9264C29.0001 26.8822 27.9854 26.3969 27.9854 26.4411H30.5442Z" fill="#7F4A41"/>
<path d="M22.8238 26.2205C22.8238 26.2205 19.3385 28.6028 17.4414 30.941C15.5443 33.2793 15.5885 33.7205 15.5885 33.7205L16.9561 34.3381C16.9561 34.3381 18.8973 30.6763 21.2796 29.3087C23.662 27.941 23.9708 26.794 23.9708 26.794L22.8238 26.2205Z" fill="#EFCCA3"/>
<path d="M15.1913 19.1618C15.1913 19.1618 14.0001 22.4265 11.353 23.7941C11.353 23.7941 15.5001 23.3089 15.1913 19.1618ZM43.0295 19.1618C43.0295 19.1618 44.2207 22.4265 46.8677 23.7941C46.8677 23.7941 42.7207 23.3089 43.0295 19.1618ZM35.4854 25.25C35.4854 25.25 32.8824 22.5147 29.3971 22.4265H29.4413H29.4854C25.956 22.5147 23.3971 25.25 23.3971 25.25C26.4413 23.1324 29.0442 23.1765 29.4854 23.1765C29.4413 23.1765 32.4413 23.1324 35.4854 25.25ZM32.4413 19.5147C32.4413 19.5147 31.1177 17.6618 29.353 17.6177H29.4413C28.1177 17.6618 26.3971 19.5147 26.3971 19.5147C27.8971 18.0589 29.4413 18.103 29.4413 18.103C29.4413 18.103 30.8971 18.0589 32.4413 19.5147ZM17.1766 33.0589C17.1766 33.0589 15.103 34.0736 13.603 33.4559H13.5589C12.2354 32.7059 11.5736 30.4559 11.5736 30.4559C11.5736 30.4559 12.8971 34.4265 17.1766 33.0589ZM41.353 33.0589C41.353 33.0589 43.4266 34.0736 44.9266 33.4559C46.6913 32.7059 46.956 30.4559 46.956 30.4559C46.956 30.4559 45.6324 34.4265 41.353 33.0589Z" fill="#CCAC8D"/>
<path d="M19.5589 18.9411C20.7059 18.7205 22.603 18.6764 24.103 19.1617C26.0001 19.8235 24.4559 22.2499 24.853 22.3823C25.2501 22.5146 25.7795 20.7058 29.3089 20.8823C32.8824 21.0588 33.2795 22.647 33.7648 22.3823C34.2501 22.1176 33.2795 17.9705 38.6177 18.9411C38.6177 18.9411 33.0148 17.4411 33.2795 21.4999C33.2795 21.4999 30.0589 19.0294 25.5589 21.2352C25.603 21.2352 26.7501 17.4411 19.5589 18.9411ZM39.103 18.9411C39.1912 18.9411 39.2353 18.9852 39.2795 18.9852C39.3236 18.9852 39.2353 18.9411 39.103 18.9411ZM18.0148 13.5146C18.0148 13.5146 13.2501 19.5146 12.5442 21.8088C11.8383 24.147 11.3089 33.7205 10.6912 35.0882L8.48535 25.647L12.5442 15.8088L18.0148 13.5146ZM40.4265 13.5146C40.4265 13.5146 45.1912 19.5146 45.8971 21.8088C46.603 24.147 47.1324 33.7205 47.75 35.0882L49.9559 25.647L45.8971 15.8088L40.4265 13.5146Z" fill="#CCAC8D"/>
<path d="M40.2058 13.5146C40.2058 13.5146 45.3234 17.794 46.8234 22.7351C48.3234 27.6763 47.7058 33.6763 48.8528 34.4263C50.4852 35.4851 52.3381 29.1763 52.9558 28.5145C53.9264 27.4557 57.1469 24.7645 57.3675 24.2793C57.5881 23.794 50.8381 16.4263 47.8822 14.9704C44.3087 13.294 39.897 13.1616 40.2058 13.5146Z" fill="#56332B"/>
<path d="M44.5732 16.1616C44.5732 16.1616 50.6174 23.8822 50.5291 33.4998L52.9556 28.5587C52.9115 28.5587 50.7938 22.2498 44.5732 16.1616Z" fill="#442823"/>
<path d="M18.0147 13.5146C18.0147 13.5146 12.8971 17.794 11.3971 22.7351C9.89705 27.6763 10.5147 33.6763 9.36764 34.4263C7.73529 35.4851 5.88235 29.1763 5.2647 28.5145C4.29411 27.4557 1.07352 24.7645 0.852935 24.2793C0.632347 23.794 7.38235 16.4263 10.3382 14.9704C13.9118 13.294 18.3235 13.1616 18.0147 13.5146Z" fill="#56332B"/>
<path d="M13.6468 16.1616C13.6468 16.1616 7.60271 23.8822 7.69095 33.4998L5.30859 28.5587C5.30859 28.5587 7.42624 22.2498 13.6468 16.1616Z" fill="#442823"/>
<path d="M10.3823 33.6764C10.3823 33.6764 10.8235 36.0587 11.5294 36.8087C12.2353 37.5587 11.75 36.2352 11.75 36.2352C11.75 36.2352 11 35.8381 11.1323 32.794C11.2647 29.7499 10.3823 33.6764 10.3823 33.6764ZM48.0147 33.6764C48.0147 33.6764 47.5735 36.0587 46.8676 36.8087C46.1617 37.5587 46.647 36.2352 46.647 36.2352C46.647 36.2352 47.397 35.8381 47.2647 32.794C47.1323 29.7499 48.0147 33.6764 48.0147 33.6764Z" fill="#CCAC8D"/>
<path d="M24.809 32.2206C25.0039 32.2206 25.1619 32.0625 25.1619 31.8676C25.1619 31.6727 25.0039 31.5146 24.809 31.5146C24.6141 31.5146 24.4561 31.6727 24.4561 31.8676C24.4561 32.0625 24.6141 32.2206 24.809 32.2206Z" fill="#442823"/>
<path d="M22.7792 34.3382C22.9741 34.3382 23.1322 34.1802 23.1322 33.9853C23.1322 33.7903 22.9741 33.6323 22.7792 33.6323C22.5843 33.6323 22.4263 33.7903 22.4263 33.9853C22.4263 34.1802 22.5843 34.3382 22.7792 34.3382Z" fill="#442823"/>
<path d="M22.1176 32.2206C22.3125 32.2206 22.4705 32.0625 22.4705 31.8676C22.4705 31.6727 22.3125 31.5146 22.1176 31.5146C21.9227 31.5146 21.7646 31.6727 21.7646 31.8676C21.7646 32.0625 21.9227 32.2206 22.1176 32.2206Z" fill="#442823"/>
<path d="M33.412 32.2206C33.607 32.2206 33.765 32.0625 33.765 31.8676C33.765 31.6727 33.607 31.5146 33.412 31.5146C33.2171 31.5146 33.0591 31.6727 33.0591 31.8676C33.0591 32.0625 33.2171 32.2206 33.412 32.2206Z" fill="#442823"/>
<path d="M35.4413 34.3382C35.6362 34.3382 35.7943 34.1802 35.7943 33.9853C35.7943 33.7903 35.6362 33.6323 35.4413 33.6323C35.2464 33.6323 35.0884 33.7903 35.0884 33.9853C35.0884 34.1802 35.2464 34.3382 35.4413 34.3382Z" fill="#442823"/>
<path d="M36.1034 32.2206C36.2983 32.2206 36.4564 32.0625 36.4564 31.8676C36.4564 31.6727 36.2983 31.5146 36.1034 31.5146C35.9085 31.5146 35.7505 31.6727 35.7505 31.8676C35.7505 32.0625 35.9085 32.2206 36.1034 32.2206Z" fill="#442823"/>
</g>
<defs>
<clipPath id="clip0">
<rect width="56.4706" height="56.4706" fill="white" transform="translate(0.764648 0.764648)"/>
</clipPath>
</defs>
</svg>
