<svg width="64" height="39" viewBox="0 0 64 39" fill="none" xmlns="http://www.w3.org/2000/svg">
<g clip-path="url(#clip0)">
<path d="M6.13423 0.941162H57.8408C61.1133 0.941162 63.7622 3.59004 63.7622 6.86249V26.5997C63.7622 29.8721 61.1133 32.521 57.8408 32.521H39.2982L41.8433 38.7537L30.6501 32.521H6.16004C2.88784 32.521 0.23896 29.8721 0.23896 26.5997V6.86249C0.212906 3.61609 2.86154 0.941162 6.13423 0.941162Z" fill="#9B5C8F"/>
<path d="M3.85555 6.33825C4.21709 5.84744 4.75927 5.58937 5.48235 5.53776C6.79946 5.43429 7.54835 6.05389 7.72899 7.39681C8.52948 12.7938 9.4074 17.3645 10.3369 21.1087L15.992 10.3407C16.5086 9.35934 17.1543 8.84296 17.929 8.79135C19.0652 8.71393 19.7622 9.43676 20.0463 10.9603C20.692 14.3946 21.5183 17.3127 22.4994 19.7916C23.1709 13.2328 24.3071 8.50723 25.9081 5.58937C26.2952 4.8663 26.8634 4.50476 27.6123 4.4529C28.2064 4.40153 28.7485 4.58218 29.2391 4.96952C29.7297 5.35687 29.988 5.84744 30.0396 6.44148C30.0654 6.90624 29.988 7.29359 29.7815 7.68093C28.7743 9.54023 27.9478 12.6648 27.2766 17.0027C26.6312 21.2119 26.3987 24.4916 26.5535 26.8414C26.6054 27.4866 26.5019 28.0548 26.2438 28.5456C25.9337 29.1136 25.4691 29.4236 24.8751 29.4752C24.2036 29.5268 23.5066 29.2171 22.8352 28.5198C20.4337 26.0665 18.5228 22.3998 17.1285 17.5194C15.4498 20.8246 14.2104 23.3035 13.4099 24.9561C11.8863 27.8742 10.5952 29.3719 9.51062 29.4494C8.81335 29.501 8.21956 28.9069 7.70318 27.6677C6.38631 24.2849 4.96597 17.7516 3.44265 8.06827C3.33917 7.39681 3.49401 6.80277 3.85555 6.33825ZM59.3482 10.3923C58.4187 8.76554 57.05 7.7844 55.2167 7.39681C54.7259 7.29359 54.2614 7.24197 53.8222 7.24197C51.3433 7.24197 49.3291 8.53304 47.754 11.1154C46.411 13.3102 45.7398 15.7375 45.7398 18.3973C45.7398 20.3856 46.153 22.0898 46.9793 23.5102C47.9088 25.137 49.2775 26.1181 51.1108 26.5054C51.6013 26.6089 52.0661 26.6605 52.5053 26.6605C55.01 26.6605 57.0242 25.3695 58.5735 22.7871C59.9162 20.5663 60.5877 18.139 60.5877 15.4794C60.6135 13.4653 60.1745 11.7866 59.3482 10.3923ZM56.0946 17.5452C55.7331 19.2494 55.0874 20.5146 54.1319 21.3668C53.3832 22.0382 52.686 22.3221 52.0406 22.1931C51.4207 22.064 50.9041 21.5218 50.517 20.5146C50.2068 19.7141 50.0522 18.9137 50.0522 18.1648C50.0522 17.5194 50.1038 16.8737 50.2329 16.2799C50.4654 15.2211 50.9043 14.1881 51.6013 13.207C52.4537 11.9415 53.3574 11.4253 54.2869 11.606C54.9068 11.735 55.4234 12.2774 55.8105 13.2844C56.1204 14.0849 56.2753 14.8854 56.2753 15.6343C56.2753 16.3057 56.2237 16.9511 56.0946 17.5449V17.5452ZM43.1833 10.3923C42.2537 8.76554 40.8592 7.7844 39.0517 7.39681C38.5612 7.29359 38.0964 7.24197 37.6572 7.24197C35.1783 7.24197 33.1642 8.53304 31.589 11.1154C30.2463 13.3102 29.5748 15.7375 29.5748 18.3973C29.5748 20.3856 29.988 22.0898 30.8143 23.5102C31.7438 25.137 33.1126 26.1181 34.9458 26.5054C35.4366 26.6089 35.9011 26.6605 36.3403 26.6605C38.845 26.6605 40.8592 25.3695 42.4086 22.7871C43.7515 20.5663 44.4227 18.139 44.4227 15.4794C44.4227 13.4653 44.0095 11.7866 43.1833 10.3923ZM39.9039 17.5452C39.5423 19.2494 38.8967 20.5146 37.9413 21.3668C37.1924 22.0382 36.4952 22.3221 35.8495 22.1931C35.2299 22.064 34.7135 21.5218 34.3259 20.5146C34.0163 19.7141 33.8614 18.9137 33.8614 18.1648C33.8614 17.5194 33.913 16.8737 34.0421 16.2799C34.2746 15.2211 34.7135 14.1881 35.4108 13.207C36.2629 11.9415 37.1666 11.4253 38.0962 11.606C38.716 11.735 39.2326 12.2774 39.6197 13.2844C39.9299 14.0849 40.0845 14.8854 40.0845 15.6343C40.1105 16.3057 40.0329 16.9511 39.9039 17.5449V17.5452Z" fill="white"/>
</g>
<defs>
<clipPath id="clip0">
<rect width="63.5294" height="37.9652" fill="white" transform="translate(0.235352 0.941162)"/>
</clipPath>
</defs>
</svg>
