<svg width="56" height="56" viewBox="0 0 56 56" fill="none" xmlns="http://www.w3.org/2000/svg">
<path d="M28.3692 51.6086C41.516 51.6086 52.1735 40.951 52.1735 27.8043C52.1735 14.6575 41.516 4 28.3692 4C15.2225 4 4.56494 14.6575 4.56494 27.8043C4.56494 40.951 15.2225 51.6086 28.3692 51.6086Z" fill="#33C6F4"/>
<path d="M52.8784 37.6539C41.9324 32.7352 30.6686 18.9097 29.7197 18.2764C28.7708 17.6431 27.4981 18.4342 27.4981 18.4342C26.705 17.1656 25.4364 18.592 25.4364 18.592C19.5647 28.5871 3.85986 38.1293 3.85986 38.1293C3.85986 38.1293 11.4018 52 28.8344 52C46.558 52 52.8784 37.6539 52.8784 37.6539Z" fill="#1B447E"/>
<path d="M17.6606 27.1587C17.6606 27.1587 20.8332 25.724 20.1979 28.1116C19.5625 30.4992 17.0253 33.9812 17.8185 34.1391C18.6116 34.2969 20.8414 32.0773 21.4685 32.3929C22.0956 32.7085 22.5793 32.5528 22.2616 33.6636C21.944 34.7744 21.6263 35.5675 22.2616 35.5675C22.897 35.5675 23.3724 34.1329 24.1656 32.7106C24.9587 31.2883 26.2273 31.9175 26.7028 32.3929C27.1783 32.8684 28.6067 35.5675 29.7175 35.2499C30.8283 34.9322 31.4616 33.5037 30.9861 30.3312C30.5107 27.1587 31.3038 26.2077 31.3038 26.2077C31.3038 26.2077 32.2547 25.7322 34.0009 27.9518C35.747 30.1713 38.9195 33.5037 39.3929 33.3459C39.8664 33.1881 37.1734 29.6979 37.8067 29.3802C38.4399 29.0626 40.9792 29.8557 42.2499 30.9665C42.2499 30.9665 42.6843 32.7844 42.6843 31.0403L29.7175 18.2764L27.4959 18.4321L25.4342 18.5899C25.4342 18.5899 20.3577 26.2077 17.6606 27.1587Z" fill="white"/>
<path d="M52.8784 38.1293C41.9324 33.2107 30.6686 18.9097 29.7197 18.2764C28.7708 17.6431 27.4981 18.4342 27.4981 18.4342C26.705 17.1656 25.4364 18.592 25.4364 18.592C19.5647 28.5871 3.85986 38.1293 3.85986 38.1293" stroke="#221E1F" stroke-width="7.16" stroke-miterlimit="10"/>
<path d="M28.3692 51.6086C41.516 51.6086 52.1735 40.951 52.1735 27.8043C52.1735 14.6575 41.516 4 28.3692 4C15.2225 4 4.56494 14.6575 4.56494 27.8043C4.56494 40.951 15.2225 51.6086 28.3692 51.6086Z" stroke="#221E1F" stroke-width="7.16" stroke-miterlimit="10"/>
</svg>
