<svg width="49" height="49" viewBox="0 0 49 49" fill="none" xmlns="http://www.w3.org/2000/svg">
<g clip-path="url(#clip0)">
<path fill-rule="evenodd" clip-rule="evenodd" d="M24.0015 1.05766C10.7494 1.05766 0.00244141 11.8028 0.00244141 25.0567C0.00244141 35.6611 6.87829 44.6541 16.4144 47.829C17.6147 48.0513 18.0558 47.3072 18.0558 46.6729C18.0558 46.1007 18.0319 44.2103 18.0222 42.2065C11.3448 43.6584 9.93717 39.3736 9.93717 39.3736C8.84577 36.5991 7.27249 35.8613 7.27249 35.8613C5.09509 34.3704 7.43817 34.4031 7.43817 34.4031C9.84762 34.5715 11.1162 36.8747 11.1162 36.8747C13.2582 40.5438 16.7324 39.4817 18.101 38.8695C18.3171 37.3185 18.9372 36.259 19.6246 35.6593C14.2936 35.0543 8.68984 32.9956 8.68984 23.7988C8.68984 21.1793 9.62884 19.0374 11.1622 17.3578C10.9125 16.7519 10.0904 14.3123 11.3934 11.0072C11.3934 11.0072 13.4087 10.3615 17.9956 13.4672C19.909 12.9366 21.9615 12.6691 23.9998 12.6602C26.0398 12.6691 28.0959 12.9357 30.012 13.4672C34.5927 10.3633 36.6061 11.0072 36.6061 11.0072C37.911 14.3132 37.0925 16.7546 36.8427 17.3579C38.3814 19.0374 39.3124 21.1793 39.3124 23.7988C39.3124 33.0168 33.6962 35.0436 28.3536 35.638C29.2147 36.3821 29.9836 37.8429 29.9836 40.0805C29.9836 43.2899 29.9562 45.8765 29.9562 46.6658C29.9562 47.3045 30.3885 48.0513 31.6056 47.8173C41.1363 44.6408 48.0033 35.6468 48.0033 25.0487C48.0033 11.7965 37.2582 1.04956 24.0033 1.04956L24.0016 1.05759L24.0015 1.05766Z" fill="black"/>
</g>
<defs>
<clipPath id="clip0">
<rect width="48" height="48" fill="white" transform="translate(0.00244141 0.458984)"/>
</clipPath>
</defs>
</svg>
