<svg width="49" height="49" viewBox="0 0 49 49" fill="none" xmlns="http://www.w3.org/2000/svg">
<g clip-path="url(#clip0)">
<path d="M4.25245 24.397C4.25245 32.5469 8.98846 39.5892 15.8561 42.927L6.03497 16.018C4.85764 18.6544 4.25022 21.5097 4.25245 24.397V24.397ZM38.7401 23.3581C38.7401 20.8136 37.8261 19.0514 37.0422 17.6798C35.9985 15.9839 35.0207 14.5477 35.0207 12.8518C35.0207 10.9592 36.4557 9.19739 38.4776 9.19739C38.5689 9.19739 38.6555 9.20875 38.7448 9.21385C35.0814 5.858 30.2012 3.80908 24.8411 3.80908C17.6484 3.80908 11.3202 7.49949 7.63884 13.0892C8.12188 13.1037 8.5775 13.1135 8.96378 13.1135C11.1173 13.1135 14.4508 12.8522 14.4508 12.8522C15.5607 12.7867 15.6915 14.4169 14.5832 14.5481C14.5832 14.5481 13.4675 14.6793 12.2264 14.7444L19.7239 37.0455L24.23 23.5324L21.0218 14.744C19.9132 14.6789 18.8628 14.5477 18.8628 14.5477C17.7534 14.4827 17.8834 12.7863 18.9929 12.8518C18.9929 12.8518 22.393 13.1131 24.4161 13.1131C26.5692 13.1131 29.9031 12.8518 29.9031 12.8518C31.0137 12.7863 31.1442 14.4165 30.0351 14.5477C30.0351 14.5477 28.9174 14.6789 27.6787 14.744L35.119 36.8762L37.1722 30.0137C38.0627 27.166 38.7401 25.1206 38.7401 23.3581V23.3581Z" fill="#00749A"/>
<path d="M25.2022 26.1981L19.0249 44.1479C20.9135 44.7045 22.8722 44.9871 24.841 44.9871C27.2386 44.9871 29.5379 44.5722 31.6781 43.82C31.6207 43.7302 31.5716 43.6352 31.5316 43.5364L25.2022 26.1981ZM42.9068 14.5193C42.9954 15.1751 43.0455 15.8795 43.0455 16.6364C43.0455 18.7256 42.6553 21.0743 41.48 24.0109L35.191 42.1938C41.312 38.6245 45.429 31.9931 45.429 24.3972C45.4345 20.9446 44.5669 17.5466 42.9068 14.5193V14.5193Z" fill="#00749A"/>
<path d="M24.841 0.397705C11.6076 0.397705 0.84082 11.1637 0.84082 24.3971C0.84082 37.632 11.6073 48.3981 24.841 48.3981C38.074 48.3981 48.8424 37.6324 48.8424 24.3971C48.842 11.1637 38.074 0.397705 24.841 0.397705ZM24.841 47.2976C12.2145 47.2976 1.94128 37.0244 1.94128 24.3971C1.94128 11.771 12.2141 1.49856 24.841 1.49856C37.4672 1.49856 47.7396 11.771 47.7396 24.3971C47.7396 37.0244 37.4668 47.2976 24.841 47.2976Z" fill="#00749A"/>
</g>
<defs>
<clipPath id="clip0">
<rect width="48" height="48" fill="white" transform="translate(0.84082 0.397705)"/>
</clipPath>
</defs>
</svg>
